<svg xmlns="http://www.w3.org/2000/svg" viewBox="0 0 512 512" fill="#fff" style="background-color:#55acee">
    <path d="M512 97.2c-19 8.4-39.3 14-60.5 16.6 21.8-13 38.4-33.4 46.2-58a209.8 209.8 0 01-66.6 25.4A105 105 0 00249.5 153c0 8.3.8 16.3 2.5 24A297.1 297.1 0 0135.6 67 105.1 105.1 0 0068 207.4c-16.9-.3-33.4-5.2-47.4-12.9v1.1c0 51 36.4 93.4 84 103.2-8.5 2.3-17.8 3.4-27.4 3.4-6.8 0-13.5-.3-20-1.8a106 106 0 0098.2 73.2A211 211 0 010 416.9 295.5 295.5 0 00161 464c193.2 0 298.8-160 298.8-298.7 0-4.6-.2-9.1-.4-13.6A209.4 209.4 0 00512 97.2z" />
</svg>