<svg viewBox="0 0 24 24" xmlns="http://www.w3.org/2000/svg" style="background-color:#ffe80f">
    <path d="M9.5 9.3l-.7 2h1.4z" />
    <path d="M12 1C5.4 1 0 5.2 0 10.4c0 3.4 2.2 6.3 5.6 8-1.3 4.4-1.3 4.4-1 4.6.2.1.5 0 5.3-3.4l2.1.2c6.6 0 12-4.2 12-9.4S18.6 1 12 1zM6 13c0 .4-.3.7-.6.7s-.7-.3-.7-.7V9H3.6c-.4 0-.7-.4-.7-.7s.3-.7.7-.7H7c.4 0 .7.3.7.7s-.3.6-.7.6h-1zm5.4.7c-.7 0-.6-.6-.9-1.2h-2c-.4.6-.3 1.2-1 1.2s-.8-.4-.6-1.1l1.6-4.3a1 1 0 011-.7c.4 0 .8.3.9.7 1 3.4 2.6 5.4 1 5.4zm4-.1h-2.2c-1.2 0-.5-1.6-.7-5.3 0-.4.3-.7.7-.7s.7.3.7.7v4h1.5c.3 0 .6.3.6.6 0 .4-.3.7-.6.7zm5.4-.5l-.3.4c-1 .7-1.6-1.4-2.6-2.3l-.2.3V13c0 .4-.3.7-.7.7a.7.7 0 01-.7-.7V8.3a.7.7 0 011.4 0v1.5c1.3-1 2-2.7 2.8-2 .8.9-.9 1.6-1.5 2.5 1.6 2.2 1.9 2.3 1.8 2.8z" />
</svg>