<svg viewBox="0 0 24 24" xmlns="http://www.w3.org/2000/svg" style="background-color:#5c6bc0">
    <g fill="#fff">
    <path d="M3.6 21.2h14.2l-.6-2.2 5.8 5V2.5C23 1 21.8 0 20.4 0H3.6A2.6 2.6 0 001 2.5v16.2c0 1.4 1.2 2.5 2.6 2.5zM14 5.7zM6.5 7C8.3 5.6 10 5.7 10 5.7l.2.1c-2.3.6-3.3 1.6-3.3 1.6.1 0 4.6-2.7 10.1 0 0 0-1-1-3.1-1.5l.2-.2c.3 0 1.8 0 3.5 1.3 0 0 1.8 3.1 1.8 7 0 0-1.1 1.6-4 1.7l-.7-1a4 4 0 002.2-1.4c-3.2 2-6 1.7-9.3.3h-.1l-.4-.2s.6 1 2.2 1.4l-.8 1c-2.8 0-3.8-1.8-3.8-1.8 0-3.9 1.8-7 1.8-7z" />
    <path d="M14.3 12.8c.7 0 1.3-.6 1.3-1.4 0-.7-.6-1.3-1.3-1.3a1.3 1.3 0 000 2.7zM9.7 12.8c.7 0 1.3-.6 1.3-1.4 0-.7-.6-1.3-1.3-1.3a1.3 1.3 0 000 2.7z" />
    </g>
</svg>