<svg viewBox="0 0 24 24" xmlns="http://www.w3.org/2000/svg" fill="#fff" style="background-color:#ea4c88">
    <path d="M16.4 23.2C28.6 18.2 25.2 0 12 0a12 12 0 104.4 23.2zM5.3 20c.8-1.5 3.6-5.5 8.3-7 1 2.6 1.7 5.5 1.7 8.8-3.5 1.2-7.3.4-10-1.8zm11.5 1.2a27 27 0 00-1.7-8.4c2-.4 4.5-.2 7.2 1-.6 3.2-2.6 6-5.5 7.4zm5.7-9c-3-1.1-5.7-1.3-8-.8a28 28 0 00-1.1-2.3 20 20 0 006.5-4c1.7 1.9 2.7 4.3 2.6 7zM18.9 4c-.9.8-2.9 2.4-6.3 3.8A28 28 0 008 2.3C11.6.8 15.8 1.4 19 4zM6.6 3c.8.7 2.7 2.5 4.5 5.3a33 33 0 01-9.4 1.5c.6-3 2.4-5.4 4.9-6.9zm-5 8.3c4.2-.1 7.6-.8 10.3-1.7l1.1 2.1A17.4 17.4 0 004.2 19c-1.8-2-2.8-4.7-2.7-7.6z" />
</svg>